<?xml version="1.0" standalone="no"?><!DOCTYPE svg PUBLIC "-//W3C//DTD SVG 1.1//EN" "http://www.w3.org/Graphics/SVG/1.1/DTD/svg11.dtd"><svg t="1702981109136" class="icon" viewBox="0 0 1224 1024" version="1.1" xmlns="http://www.w3.org/2000/svg" p-id="1004" xmlns:xlink="http://www.w3.org/1999/xlink" width="239.0625" height="200"><path d="M1042.624666 750.714705h-15.212881a174.447113 174.447113 0 0 0-20.223112-134.091985 205.237256 205.237256 0 0 0-113.868873-91.095098 166.88622 166.88622 0 0 0-121.429766 10.111556L230.329675 1011.155591a7.560893 7.560893 0 0 0 5.101325 12.662219h814.754559a136.642647 136.642647 0 0 0 134.729651-138.373455c0-3.552709 0-7.196513-0.637666-10.749221a139.102215 139.102215 0 0 0-141.652878-123.980429z" fill="#A1C6E6" p-id="1005"></path><path d="M455.516758 366.1112A235.298639 235.298639 0 0 0 222.768781 581.186727l-5.101325 42.996887h-22.773775a227.737746 227.737746 0 0 0-58.209767 5.101325h-2.459568C65.903022 644.406725 0.041266 712.728049 0.041266 783.417845a167.159505 167.159505 0 0 0 113.868873 162.149275 25.415532 25.415532 0 0 0 17.763544-5.101325l511.134597-452.924829a18.21902 18.21902 0 0 0 2.550662-22.773774A227.737746 227.737746 0 0 0 455.516758 366.1112z" fill="#C3D6E6" p-id="1006"></path><path d="M835.110032 16.852593a516.144827 516.144827 0 0 0-629.922605 368.935148v0.546571A366.384485 366.384485 0 0 0 194.893681 437.256472a286.220799 286.220799 0 0 1 240.399965-134.456365l55.659105 5.101325a298.609732 298.609732 0 0 1 513.685259 197.403078 231.38155 231.38155 0 0 1 55.659105 65.770661 236.847256 236.847256 0 0 1 32.885331 136.642648 171.34988 171.34988 0 0 1 80.983542 27.328529 350.169558 350.169558 0 0 0 32.885331-85.993773A516.235922 516.235922 0 0 0 840.393548 18.21902l-5.283516-1.366427z" fill="#F27648" p-id="1007"></path><path d="M822.447814 72.876079a460.394627 460.394627 0 0 0-544.019928 278.02224 281.483854 281.483854 0 0 1 156.86576-48.098212l55.659105 5.101325a298.609732 298.609732 0 0 1 513.685259 197.403078 231.38155 231.38155 0 0 1 55.659105 65.770661 236.847256 236.847256 0 0 1 32.885331 136.642648l27.8751 5.01023a742.516146 742.516146 0 0 0 27.8751-78.43288A460.485722 460.485722 0 0 0 822.447814 72.876079z" fill="#FAFF4D" p-id="1008"></path><path d="M807.326027 130.721466a399.907482 399.907482 0 0 0-445.363935 182.190197 342.69976 342.69976 0 0 1 73.331554-10.111556l55.659105 5.101325a298.609732 298.609732 0 0 1 513.685259 197.403078 231.38155 231.38155 0 0 1 55.659105 65.770661 247.960858 247.960858 0 0 1 25.324438 68.321324L1093.182446 619.446668a399.816386 399.816386 0 0 0-285.218753-488.269726h-0.637666z" fill="#52CC93" p-id="1009"></path><path d="M794.663809 178.819678A356.8195 356.8195 0 0 0 428.188228 302.800107h7.560893l55.659105 5.101325a298.609732 298.609732 0 0 1 513.68526 197.403078 240.49106 240.49106 0 0 1 48.098212 53.108443 351.80927 351.80927 0 0 0-258.527889-379.593275z" fill="#7564C8" p-id="1010"></path></svg>